<?xml version="1.0" encoding="utf-8"?>
<!-- Generator: Adobe Illustrator 16.0.0, SVG Export Plug-In . SVG Version: 6.00 Build 0)  -->
<!DOCTYPE svg PUBLIC "-//W3C//DTD SVG 1.1//EN" "http://www.w3.org/Graphics/SVG/1.1/DTD/svg11.dtd">
<svg version="1.1" id="Layer_1" xmlns="http://www.w3.org/2000/svg" xmlns:xlink="http://www.w3.org/1999/xlink" x="0px" y="0px"
	 width="307px" height="307px" viewBox="0 0 307 307" enable-background="new 0 0 307 307" xml:space="preserve">
<g>
	<path opacity="0.9" fill="#4C6EB5" d="M229.96,124.254c0,40.831-33.103,73.93-73.931,73.93c-40.835,0-73.936-33.1-73.936-73.93
		c0-40.833,33.1-73.933,73.936-73.933C196.857,50.321,229.96,83.421,229.96,124.254z"/>
	<path opacity="0.9" fill="#FAB665" d="M186.14,74.498c0,25.511-20.686,46.193-46.194,46.193c-25.514,0-46.195-20.682-46.195-46.193
		c0-25.512,20.682-46.194,46.195-46.194C165.454,28.304,186.14,48.986,186.14,74.498z"/>
	<path opacity="0.9" fill="#7654A3" d="M186.784,140.656c0-31.294-25.367-56.662-56.661-56.662
		c-31.295,0-56.664,25.368-56.664,56.662c0,31.297,25.369,56.664,56.664,56.664C161.417,197.32,186.784,171.953,186.784,140.656z"/>
	<path opacity="0.9" fill="#D4567F" d="M234.277,100.833c0,22.412-18.172,40.581-40.582,40.581
		c-22.415,0-40.584-18.169-40.584-40.581c0-22.414,18.169-40.583,40.584-40.583C216.105,60.25,234.277,78.419,234.277,100.833z"/>
	<circle opacity="0.35" fill="#FFFFFF" cx="147.714" cy="121.77" r="68.858"/>
	<path opacity="0.35" fill="#939598" d="M144.998,55.654c-36.556,0-66.191,30.43-66.191,67.969
		c0,37.539,29.636,67.969,66.191,67.969c36.56,0,66.194-30.43,66.194-67.969C211.192,86.083,181.558,55.654,144.998,55.654z
		 M144.713,180.939c-31.081,0-56.279-25.875-56.279-57.792c0-31.917,25.198-57.792,56.279-57.792
		c31.084,0,56.282,25.874,56.282,57.792C200.995,155.064,175.798,180.939,144.713,180.939z"/>
	<circle cx="142.751" cy="122.85" r="62.168"/>
	<circle fill="#F48A97" cx="197.687" cy="43.304" r="6.261"/>
	<ellipse fill="#F38492" cx="69.963" cy="81.565" rx="11.402" ry="11.172"/>
	<path fill="#FBBF77" d="M199.735,211.781c0,3.814-3.091,6.906-6.905,6.906c-3.817,0-6.908-3.092-6.908-6.906
		c0-3.816,3.091-6.908,6.908-6.908C196.645,204.873,199.735,207.965,199.735,211.781z"/>
	<circle fill="#5A7BBD" cx="184.25" cy="14.542" r="13.22"/>
	<circle fill="#8768AD" cx="127.963" cy="213.186" r="5.936"/>
	<g id="_x2F_">
		<path fill="none" stroke="#FFFFFF" stroke-width="0.75" stroke-miterlimit="10" d="M129.833,144.014
			c0.933,3.553,6.711,4.876,6.711,4.876l25.04-44.036c0,0-9.608-3.128-11.361-2.231C148.928,102.947,129.632,143.25,129.833,144.014
			z"/>
		
			<line fill="none" stroke="#FFFFFF" stroke-width="0.75" stroke-miterlimit="10" x1="134.871" y1="148.104" x2="158.508" y2="104.286"/>
	</g>
	<g id="_x3C_">
		<path fill="none" stroke="#FFFFFF" stroke-width="0.75" stroke-miterlimit="10" d="M130.878,103.638
			c-0.748,0.21-16.765,16.172-16.945,16.837c-0.18,0.665,7.341,17.988,7.986,18.887c0.646,0.899,6.045,0.324,6.045,0.324
			s-8.146-18.64-8.139-18.882c0.008-0.243,15.478-14.144,15.478-14.144S131.625,103.428,130.878,103.638z"/>
		<path fill="none" stroke="#FFFFFF" stroke-width="0.75" stroke-miterlimit="10" d="M135.465,106.552
			c0,0-10.822,14.921-11.154,16.084c-0.333,1.164,3.801,17.307,3.801,17.307"/>
		
			<line fill="none" stroke="#FFFFFF" stroke-width="0.5" stroke-miterlimit="10" x1="120.268" y1="120.859" x2="124.639" y2="122.593"/>
	</g>
	<g id="_x3E_">
		<path fill="none" stroke="#FFFFFF" stroke-width="0.65" stroke-miterlimit="10" d="M165.308,129.972
			c0,0-11.533,15.39-11.549,16.082c-0.017,0.692,6.152,2.05,6.152,2.05s15.473-13.77,15.496-14.358
			c0.02-0.588-5.351-22.014-5.351-22.014s-7.004-1.734-7.169-1.567C162.721,110.333,165.308,129.972,165.308,129.972z"/>
		<path fill="none" stroke="#FFFFFF" stroke-width="0.65" stroke-miterlimit="10" d="M158.479,147.494
			c0,0,13.145-13.833,13.203-14.855c0.058-1.022-4.465-21.504-4.465-21.504"/>
		
			<line fill="none" stroke="#FFFFFF" stroke-width="0.5" stroke-miterlimit="10" x1="171.683" y1="132.639" x2="175.406" y2="133.747"/>
	</g>
</g>
<g>
	<g>
		<path fill="#414042" d="M26.594,243.896c5.265,0,9.694,4.38,9.842,9.842h-4.921c0-2.706-2.214-4.921-4.921-4.921H11.831
			c-2.706,0-4.921,2.215-4.921,4.921V268.5c0,2.707,2.215,4.922,4.921,4.922h14.763c2.707,0,4.921-2.215,4.921-4.922h4.921
			c0,5.217-4.331,9.842-9.842,9.842H11.831c-5.265,0-9.842-4.281-9.842-9.842v-14.763c0-5.314,4.331-9.694,9.842-9.842H26.594z"/>
		<path fill="#414042" d="M74.332,268.5c0,5.414-4.429,9.842-9.842,9.842H49.728c-5.462,0-9.842-4.379-9.842-9.842v-14.763
			c0-5.413,4.429-9.842,9.842-9.842H64.49c5.216,0,9.842,4.478,9.842,9.842V268.5z M69.411,253.737c0-2.706-2.214-4.921-4.921-4.921
			H49.728c-2.707,0-4.921,2.215-4.921,4.921V268.5c0,2.707,2.215,4.922,4.921,4.922H64.49c2.707,0,4.921-2.215,4.921-4.922V253.737z
			"/>
		<path fill="#414042" d="M113.212,268.5c0,5.217-4.331,9.842-9.842,9.842H78.766v-34.446h24.605c5.265,0,9.694,4.38,9.842,9.842
			V268.5z M108.292,253.737c0-2.706-2.214-4.921-4.921-4.921H83.687v24.605h19.684c2.707,0,4.921-2.215,4.921-4.922V253.737z"/>
		<path fill="#414042" d="M122.567,258.658h24.605v4.922h-24.605v9.842h29.526v4.92h-34.447v-34.446h34.447v4.921h-29.526V258.658z"
			/>
		<path fill="#414042" d="M160.956,258.658h24.604v4.922h-24.604v14.762h-4.921v-34.446h34.446v4.921h-29.525V258.658z"/>
		<path fill="#414042" d="M223.456,243.896h4.921V268.5c0,5.217-4.33,9.842-9.842,9.842h-14.763c-5.266,0-9.842-4.281-9.842-9.842
			v-24.604h4.921V268.5c0,2.707,2.214,4.922,4.921,4.922h14.763c2.706,0,4.921-2.215,4.921-4.922V243.896z"/>
		<path fill="#414042" d="M257.415,278.342h-14.763c-5.364,0-9.694-4.281-9.842-9.842h4.921c0,2.707,2.214,4.922,4.921,4.922h14.763
			c2.706,0,4.921-2.215,4.921-4.922c0-2.706-2.215-4.92-4.921-4.92h-14.763c-5.266,0-9.842-4.281-9.842-9.843
			c0-5.216,4.33-9.842,9.842-9.842h14.763c5.266,0,9.694,4.38,9.842,9.842h-4.921c0-2.706-2.215-4.921-4.921-4.921h-14.763
			c-2.707,0-4.921,2.215-4.921,4.921s2.214,4.921,4.921,4.921h14.763c5.167,0,9.842,4.38,9.842,9.842
			C267.257,273.717,262.927,278.342,257.415,278.342z"/>
		<path fill="#414042" d="M276.612,258.658h24.604v4.922h-24.604v9.842h29.525v4.92h-34.446v-34.446h34.446v4.921h-29.525V258.658z"
			/>
	</g>
	<g>
		<path fill="#808285" d="M104.709,290.797v9.328h-1.555v-9.328H98.49v-1.556h10.884v1.556H104.709z"/>
		<path fill="#808285" d="M111.702,293.906h7.774v1.555h-7.774v3.109h9.329v1.555h-10.884v-10.884h10.884v1.556h-9.329V293.906z"/>
		<path fill="#808285" d="M129.888,289.241c1.664,0,3.063,1.384,3.109,3.11h-1.555c0-0.855-0.7-1.555-1.555-1.555h-4.665
			c-0.855,0-1.555,0.699-1.555,1.555v4.664c0,0.855,0.7,1.555,1.555,1.555h4.665c0.855,0,1.555-0.699,1.555-1.555h1.555
			c0,1.648-1.368,3.109-3.109,3.109h-4.665c-1.664,0-3.11-1.352-3.11-3.109v-4.664c0-1.68,1.368-3.063,3.11-3.11H129.888z"/>
		<path fill="#808285" d="M145.121,300.125h-1.555l-7.774-8.365v8.365h-1.555v-10.884h1.555l7.774,8.241v-8.241h1.555V300.125z"/>
		<path fill="#808285" d="M157.398,297.016c0,1.711-1.4,3.109-3.109,3.109h-4.665c-1.726,0-3.11-1.383-3.11-3.109v-4.664
			c0-1.711,1.399-3.11,3.11-3.11h4.665c1.647,0,3.109,1.415,3.109,3.11V297.016z M155.844,292.352c0-0.855-0.7-1.555-1.555-1.555
			h-4.665c-0.855,0-1.555,0.699-1.555,1.555v4.664c0,0.855,0.7,1.555,1.555,1.555h4.665c0.854,0,1.555-0.699,1.555-1.555V292.352z"
			/>
		<path fill="#808285" d="M160.347,298.57h9.329v1.555h-10.884v-10.884h1.555V298.57z"/>
		<path fill="#808285" d="M180.866,297.016c0,1.711-1.399,3.109-3.109,3.109h-4.665c-1.726,0-3.109-1.383-3.109-3.109v-4.664
			c0-1.711,1.399-3.11,3.109-3.11h4.665c1.648,0,3.109,1.415,3.109,3.11V297.016z M179.312,292.352c0-0.855-0.699-1.555-1.555-1.555
			h-4.665c-0.854,0-1.555,0.699-1.555,1.555v4.664c0,0.855,0.7,1.555,1.555,1.555h4.665c0.855,0,1.555-0.699,1.555-1.555V292.352z"
			/>
		<path fill="#808285" d="M186.77,293.906h6.22v3.109c0,1.648-1.368,3.109-3.109,3.109h-4.665c-1.663,0-3.109-1.352-3.109-3.109
			v-4.664c0-1.648,1.368-3.11,3.109-3.11h4.665c1.663,0,3.063,1.384,3.109,3.11h-1.555c0-0.855-0.699-1.555-1.555-1.555h-4.665
			c-0.854,0-1.555,0.699-1.555,1.555v4.664c0,0.855,0.7,1.555,1.555,1.555h4.665c0.855,0,1.555-0.699,1.555-1.555v-1.555h-4.665
			V293.906z"/>
		<path fill="#808285" d="M194.383,289.241h1.555v10.884h-1.555V289.241z"/>
		<path fill="#808285" d="M208.375,300.125h-1.555v-3.109h-7.774v3.109h-1.555v-7.773c0-1.648,1.368-3.11,3.109-3.11h4.665
			c1.664,0,3.063,1.384,3.109,3.11V300.125z M200.601,290.797c-0.854,0-1.555,0.699-1.555,1.555v3.109h7.774v-3.109
			c0-0.855-0.699-1.555-1.555-1.555H200.601z"/>
	</g>
</g>
<g>
</g>
<g>
</g>
<g>
</g>
<g>
</g>
<g>
</g>
<g>
</g>
</svg>
